<svg preserveAspectRatio="none" width="100%" height="100%" overflow="visible" style="display: block;" viewBox="0 0 116.711 106.657" fill="none" xmlns="http://www.w3.org/2000/svg">
<g id="cat1&#239;&#188;&#154;&#231;&#130;&#185;&#229;&#135;&#187;&#232;&#167;&#166;&#229;&#143;&#145;&#229;&#175;&#185;&#232;&#175;&#157;" filter="url(#filter0_d_0_24)">
<g id="Ellipse 23" filter="url(#filter1_i_0_24)">
<path d="M33.0827 22.7643C31.081 24.1837 26.0733 41.928 26.0733 41.928C22.9494 49.2134 22.8631 63.5868 23.832 71.5837C26.0178 89.6228 47.2283 94.765 71.722 92.6136C96.2157 90.4621 110.92 82.7751 108.734 64.736C107.765 56.739 98.0198 25.5818 90.5099 17.6396C88.8743 16.7332 86.4986 19.5007 84.7223 22.8322C82.9743 26.1106 81.1791 29.4775 79.3778 29.0693C74.0443 27.8607 68.3666 27.6257 62.5585 28.1359C57.6119 28.5704 52.6323 29.5399 47.9682 31.1435C46.0256 31.8114 43.1947 29.2403 40.4268 26.7265C37.5581 24.121 34.757 21.577 33.0827 22.7643Z" fill="url(#paint0_linear_0_24)"/>
</g>
<mask id="mask0_0_24" style="mask-type:alpha" maskUnits="userSpaceOnUse" x="23" y="17" width="86" height="77">
<path id="Ellipse 25" d="M33.0827 22.7643C31.081 24.1837 26.0733 41.928 26.0733 41.928C22.9494 49.2134 22.8631 63.5868 23.832 71.5837C26.0178 89.6228 47.2283 94.765 71.722 92.6136C96.2157 90.4621 110.92 82.7751 108.734 64.736C107.765 56.739 98.0198 25.5818 90.5099 17.6396C88.8743 16.7332 86.4986 19.5007 84.7223 22.8322C82.9743 26.1106 81.1791 29.4775 79.3778 29.0693C74.0443 27.8607 68.3666 27.6257 62.5585 28.1359C57.6119 28.5704 52.6323 29.5399 47.9682 31.1435C46.0256 31.8114 43.1947 29.2403 40.4268 26.7265C37.5581 24.121 34.757 21.577 33.0827 22.7643Z" fill="url(#paint1_linear_0_24)"/>
</mask>
<g mask="url(#mask0_0_24)">
<g id="Ellipse 26" filter="url(#filter2_f_0_24)">
<ellipse cx="20.0002" cy="19.9991" rx="20.0002" ry="19.9991" transform="matrix(0.999844 0.0176411 0.0160505 0.999871 12.7791 23.8374)" fill="var(--fill-0, white)" fill-opacity="0.6"/>
</g>
<g id="Ellipse 27" filter="url(#filter3_f_0_24)">
<ellipse cx="20.0002" cy="19.9991" rx="20.0002" ry="19.9991" transform="matrix(0.999844 0.0176411 0.0160505 0.999871 46.0296 15.496)" fill="var(--fill-0, #D5E1FF)"/>
</g>
<g id="Ellipse 28" filter="url(#filter4_f_0_24)">
<ellipse cx="20.0002" cy="19.9991" rx="20.0002" ry="19.9991" transform="matrix(0.999844 0.0176411 0.0160505 0.999871 67.7736 15.8799)" fill="var(--fill-0, #EDAFF6)" fill-opacity="0.6"/>
</g>
<g id="Ellipse 24" filter="url(#filter5_i_0_24)">
<path d="M33.0827 22.7643C31.081 24.1837 26.0733 41.928 26.0733 41.928C22.9494 49.2134 22.8631 63.5868 23.832 71.5837C26.0178 89.6228 47.2283 94.765 71.722 92.6136C96.2157 90.4621 110.92 82.7751 108.734 64.736C107.765 56.739 98.0198 25.5818 90.5099 17.6396C88.8743 16.7332 86.4986 19.5007 84.7223 22.8322C82.9743 26.1106 81.1791 29.4775 79.3778 29.0693C74.0443 27.8607 68.3666 27.6257 62.5585 28.1359C57.6119 28.5704 52.6323 29.5399 47.9682 31.1435C46.0256 31.8114 43.1947 29.2403 40.4268 26.7265C37.5581 24.121 34.757 21.577 33.0827 22.7643Z" fill="var(--fill-0, #D0C7FE)" fill-opacity="0.01"/>
</g>
<g id="Ellipse 31" opacity="0.5" filter="url(#filter6_i_0_24)">
<path d="M33.0827 22.7643C31.081 24.1837 26.0733 41.928 26.0733 41.928C22.9494 49.2134 22.8631 63.5868 23.832 71.5837C26.0178 89.6228 47.2283 94.765 71.722 92.6136C96.2157 90.4621 110.92 82.7751 108.734 64.736C107.765 56.739 98.0198 25.5818 90.5099 17.6396C88.8743 16.7332 86.4986 19.5007 84.7223 22.8322C82.9743 26.1106 81.1791 29.4775 79.3778 29.0693C74.0443 27.8607 68.3666 27.6257 62.5585 28.1359C57.6119 28.5704 52.6323 29.5399 47.9682 31.1435C46.0256 31.8114 43.1947 29.2403 40.4268 26.7265C37.5581 24.121 34.757 21.577 33.0827 22.7643Z" fill="var(--fill-0, #D0C7FE)" fill-opacity="0.01"/>
</g>
<g id="Ellipse 30" filter="url(#filter7_f_0_24)">
<path d="M95.2308 86.8275C95.5244 90.5895 79.3609 98.0583 70.0769 98.4714C60.7929 98.8844 43.7995 96.664 43.5058 92.902C43.2122 89.1401 60.3993 74.3683 69.6833 73.9553C78.9673 73.5422 94.9371 83.0656 95.2308 86.8275Z" fill="var(--fill-0, white)" fill-opacity="0.8" style="mix-blend-mode:lighten"/>
</g>
<path id="Union" d="M49.5111 56.7171C50.0331 55.3803 51.5595 54.7581 52.9205 55.3281L62.0387 59.1472C62.218 59.2223 62.3852 59.3152 62.5397 59.4214C63.1986 59.6997 63.7527 60.2332 64.0315 60.949C64.5642 62.3172 63.8932 63.8239 62.5325 64.3144L54.2637 67.2957C52.903 67.786 51.368 67.0742 50.8351 65.7062C50.3022 64.338 50.9732 62.8305 52.3339 62.3399L54.4166 61.5885L51.0303 60.1703C49.6692 59.6003 48.9891 58.0542 49.5111 56.7171Z" fill="var(--fill-0, #886CDB)"/>
<rect id="Rectangle 13" opacity="0.8" width="6.93269" height="10.948" rx="3.46635" transform="matrix(0.996165 -0.0875004 0.120286 0.992739 72.7512 54.7368)" fill="var(--fill-0, #886CDB)"/>
<g id="Ellipse 43512" opacity="0.7" filter="url(#filter8_f_0_24)">
<circle cx="2.5" cy="2.5" r="2.5" transform="matrix(0.997187 0.115733 -0.0821875 0.993852 19.6089 10.5915)" fill="var(--fill-0, #94ACF6)"/>
</g>
</g>
</g>
<defs>
<filter id="filter0_d_0_24" x="-7.00146" y="-9.94097" width="131.149" height="122.737" filterUnits="userSpaceOnUse" color-interpolation-filters="sRGB">
<feFlood flood-opacity="0" result="BackgroundImageFix"/>
<feColorMatrix in="SourceAlpha" type="matrix" values="0 0 0 0 0 0 0 0 0 0 0 0 0 0 0 0 0 0 127 0" result="hardAlpha"/>
<feOffset dx="-7.76246" dy="-1.94061"/>
<feGaussianBlur stdDeviation="7.76246"/>
<feComposite in2="hardAlpha" operator="out"/>
<feColorMatrix type="matrix" values="0 0 0 0 0.34991 0 0 0 0 0.64245 0 0 0 0 1 0 0 0 0.25 0"/>
<feBlend mode="normal" in2="BackgroundImageFix" result="effect1_dropShadow_0_24"/>
<feBlend mode="normal" in="SourceGraphic" in2="effect1_dropShadow_0_24" result="shape"/>
</filter>
<filter id="filter1_i_0_24" x="23.2874" y="17.4655" width="85.661" height="75.6074" filterUnits="userSpaceOnUse" color-interpolation-filters="sRGB">
<feFlood flood-opacity="0" result="BackgroundImageFix"/>
<feBlend mode="normal" in="SourceGraphic" in2="BackgroundImageFix" result="shape"/>
<feColorMatrix in="SourceAlpha" type="matrix" values="0 0 0 0 0 0 0 0 0 0 0 0 0 0 0 0 0 0 127 0" result="hardAlpha"/>
<feOffset/>
<feGaussianBlur stdDeviation="7.76246"/>
<feComposite in2="hardAlpha" operator="arithmetic" k2="-1" k3="1"/>
<feColorMatrix type="matrix" values="0 0 0 0 1 0 0 0 0 1 0 0 0 0 1 0 0 0 1 0"/>
<feBlend mode="normal" in2="shape" result="effect1_innerShadow_0_24"/>
</filter>
<filter id="filter2_f_0_24" x="-17.9523" y="-6.8628" width="102.099" height="102.099" filterUnits="userSpaceOnUse" color-interpolation-filters="sRGB">
<feFlood flood-opacity="0" result="BackgroundImageFix"/>
<feBlend mode="normal" in="SourceGraphic" in2="BackgroundImageFix" result="shape"/>
<feGaussianBlur stdDeviation="15.5249" result="effect1_foregroundBlur_0_24"/>
</filter>
<filter id="filter3_f_0_24" x="15.2982" y="-15.2042" width="102.099" height="102.099" filterUnits="userSpaceOnUse" color-interpolation-filters="sRGB">
<feFlood flood-opacity="0" result="BackgroundImageFix"/>
<feBlend mode="normal" in="SourceGraphic" in2="BackgroundImageFix" result="shape"/>
<feGaussianBlur stdDeviation="15.5249" result="effect1_foregroundBlur_0_24"/>
</filter>
<filter id="filter4_f_0_24" x="37.0421" y="-14.8203" width="102.099" height="102.099" filterUnits="userSpaceOnUse" color-interpolation-filters="sRGB">
<feFlood flood-opacity="0" result="BackgroundImageFix"/>
<feBlend mode="normal" in="SourceGraphic" in2="BackgroundImageFix" result="shape"/>
<feGaussianBlur stdDeviation="15.5249" result="effect1_foregroundBlur_0_24"/>
</filter>
<filter id="filter5_i_0_24" x="23.2874" y="17.4655" width="85.661" height="75.6074" filterUnits="userSpaceOnUse" color-interpolation-filters="sRGB">
<feFlood flood-opacity="0" result="BackgroundImageFix"/>
<feBlend mode="normal" in="SourceGraphic" in2="BackgroundImageFix" result="shape"/>
<feColorMatrix in="SourceAlpha" type="matrix" values="0 0 0 0 0 0 0 0 0 0 0 0 0 0 0 0 0 0 127 0" result="hardAlpha"/>
<feOffset/>
<feGaussianBlur stdDeviation="9.70307"/>
<feComposite in2="hardAlpha" operator="arithmetic" k2="-1" k3="1"/>
<feColorMatrix type="matrix" values="0 0 0 0 1 0 0 0 0 1 0 0 0 0 1 0 0 0 1 0"/>
<feBlend mode="normal" in2="shape" result="effect1_innerShadow_0_24"/>
</filter>
<filter id="filter6_i_0_24" x="23.2874" y="17.4655" width="85.661" height="75.6074" filterUnits="userSpaceOnUse" color-interpolation-filters="sRGB">
<feFlood flood-opacity="0" result="BackgroundImageFix"/>
<feBlend mode="normal" in="SourceGraphic" in2="BackgroundImageFix" result="shape"/>
<feColorMatrix in="SourceAlpha" type="matrix" values="0 0 0 0 0 0 0 0 0 0 0 0 0 0 0 0 0 0 127 0" result="hardAlpha"/>
<feOffset/>
<feGaussianBlur stdDeviation="9.70307"/>
<feComposite in2="hardAlpha" operator="arithmetic" k2="-1" k3="1"/>
<feColorMatrix type="matrix" values="0 0 0 0 1 0 0 0 0 1 0 0 0 0 1 0 0 0 1 0"/>
<feBlend mode="normal" in2="shape" result="effect1_innerShadow_0_24"/>
</filter>
<filter id="filter7_f_0_24" x="31.8584" y="62.2986" width="75.02" height="47.8656" filterUnits="userSpaceOnUse" color-interpolation-filters="sRGB">
<feFlood flood-opacity="0" result="BackgroundImageFix"/>
<feBlend mode="normal" in="SourceGraphic" in2="BackgroundImageFix" result="shape"/>
<feGaussianBlur stdDeviation="5.82184" result="effect1_foregroundBlur_0_24"/>
</filter>
<filter id="filter8_f_0_24" x="9.39485" y="0.86383" width="25.0031" height="25.0033" filterUnits="userSpaceOnUse" color-interpolation-filters="sRGB">
<feFlood flood-opacity="0" result="BackgroundImageFix"/>
<feBlend mode="normal" in="SourceGraphic" in2="BackgroundImageFix" result="shape"/>
<feGaussianBlur stdDeviation="5" result="effect1_foregroundBlur_0_24"/>
</filter>
<linearGradient id="paint0_linear_0_24" x1="60.4528" y1="20.0404" x2="67.4178" y2="99.3358" gradientUnits="userSpaceOnUse">
<stop stop-color="#C2B5FF"/>
<stop offset="1" stop-color="#78F8FF"/>
</linearGradient>
<linearGradient id="paint1_linear_0_24" x1="60.4528" y1="20.0404" x2="67.4178" y2="99.3358" gradientUnits="userSpaceOnUse">
<stop stop-color="#A899F2"/>
<stop offset="1" stop-color="#A5D8FF"/>
</linearGradient>
</defs>
</svg>
